<?xml version="1.0" encoding="UTF-8" standalone="no"?>
<!-- Created with Inkscape (http://www.inkscape.org/) -->

<svg
   xmlns:dc="http://purl.org/dc/elements/1.1/"
   xmlns:cc="http://creativecommons.org/ns#"
   xmlns:rdf="http://www.w3.org/1999/02/22-rdf-syntax-ns#"
   xmlns:svg="http://www.w3.org/2000/svg"
   xmlns="http://www.w3.org/2000/svg"
   xmlns:sodipodi="http://sodipodi.sourceforge.net/DTD/sodipodi-0.dtd"
   xmlns:inkscape="http://www.inkscape.org/namespaces/inkscape"
   width="287.49603"
   height="197.16968"
   id="svg3802"
   version="1.1"
   inkscape:version="0.48.4 r9939"
   sodipodi:docname="chefwhale.svg"
   inkscape:export-filename="/home/jtebert/Copy/Projects/Programming/chefwhale/chefwhale/static/chefwhale/images/chefwhale.png"
   inkscape:export-xdpi="90"
   inkscape:export-ydpi="90">
  <defs
     id="defs3804" />
  <sodipodi:namedview
     id="base"
     pagecolor="#ffffff"
     bordercolor="#666666"
     borderopacity="1.0"
     inkscape:pageopacity="0.0"
     inkscape:pageshadow="2"
     inkscape:zoom="0.35"
     inkscape:cx="143.74802"
     inkscape:cy="98.584838"
     inkscape:document-units="px"
     inkscape:current-layer="layer1"
     showgrid="false"
     fit-margin-top="0"
     fit-margin-left="0"
     fit-margin-right="0"
     fit-margin-bottom="0"
     inkscape:window-width="465"
     inkscape:window-height="394"
     inkscape:window-x="0"
     inkscape:window-y="22"
     inkscape:window-maximized="0" />
  <metadata
     id="metadata3807">
    <rdf:RDF>
      <cc:Work
         rdf:about="">
        <dc:format>image/svg+xml</dc:format>
        <dc:type
           rdf:resource="http://purl.org/dc/dcmitype/StillImage" />
        <dc:title></dc:title>
      </cc:Work>
    </rdf:RDF>
  </metadata>
  <g
     inkscape:label="Layer 1"
     inkscape:groupmode="layer"
     id="layer1"
     transform="translate(-231.25198,-433.77734)">
    <g
       id="g3937-7-5"
       transform="matrix(0.5160616,0.080666,-0.080666,0.5160616,396.02132,220.8721)"
       inkscape:export-filename="/home/jtebert/Copy/Projects/Programming/chefwhale/chefwhale/static/chefwhale/images/favicon.png"
       inkscape:export-xdpi="90"
       inkscape:export-ydpi="90">
      <path
         sodipodi:nodetypes="scccsssssscsscsssss"
         inkscape:connector-curvature="0"
         d="m -195.89989,618.03317 c -24.59817,-10.0007 -31.0023,-26.06914 -40.10962,-85.32223 47.08919,42.47327 90.25288,11.55626 110.17511,59.9401 -3.02562,-52.4792 44.824726,-31.84156 78.271486,-89.7628 13.10053,60.49914 9.9906,73.42879 -5.96638,87.93338 -24.14332,21.94582 -41.58813,33.69387 -36.67954,58.20945 6.72581,33.59158 5.47942,64.21464 54.59742,57.94754 47.80889,-6.10008 6.23181,-126.89003 63.2915,-157.03359 52.95613,-27.97574 132.727004,-37.61856 205.821174,-36.85807 49.73657,0.51746 90.56325,36.17101 94.96213,66.86467 3.3429,23.32544 3.19437,34.09208 3.19437,34.09208 0,0 -78.17759,13.22996 -111.78785,16.9869 -66.45937,7.4288 -8.41796,61.20081 21.91538,77.27924 30.33992,16.08191 100.68838,-9.21629 100.68838,-9.21629 4.42708,29.62266 -9.81151,38.47807 -30.53832,42.80108 -95.80391,19.98189 -229.109904,41.90526 -343.019874,52.07008 -36.079,3.21953 -77.505476,-30.629 -92.271146,-65.36684 -9.76222,-22.96669 -4.30338,-36.31602 -16.57242,-67.38243 -9.06695,-22.9584 -27.66163,-31.67241 -55.9718,-43.18227 z"
         style="fill:#0b57a0;fill-opacity:1;stroke:none"
         id="path2985-9-5" />
      <path
         sodipodi:nodetypes="cscsccccsc"
         d="m 147.19654,416.41822 c -5.90431,-9.67983 -15.43783,-27.66053 -40.18974,-20.13615 -20.210154,6.14372 -18.210424,24.73898 -16.771004,37.76738 -27.95753,6.02106 -39.80608,18.9087 -33.7667,42.96056 5.0437,20.08656 22.40707,22.61996 41.68247,20.02705 5.232604,10.93198 13.680844,32.86767 16.594964,42.2402 24.73288,1.46569 55.0469,2.22951 68.61917,-18.70141 -4.4436,-15.54508 -7.90521,-29.18527 -10.11449,-43.84156 22.66656,-11.59514 30.82415,-26.23767 25.7936,-43.88002 -6.85736,-24.04907 -32.15545,-26.64757 -51.84827,-16.43605 z"
         style="fill:#ffffff;fill-opacity:1;fill-rule:nonzero;stroke:none"
         id="path76502-8-7"
         inkscape:connector-curvature="0" />
      <g
         transform="translate(-107.14286,-28.571429)"
         id="g3929-7-2">
        <path
           sodipodi:type="arc"
           style="fill:#ffffff;fill-opacity:1;stroke:none"
           id="path2987-7-0"
           sodipodi:cx="478.57144"
           sodipodi:cy="553.79077"
           sodipodi:rx="7.1428571"
           sodipodi:ry="7.1428571"
           d="m 485.7143,553.79077 c 0,3.94489 -3.19797,7.14286 -7.14286,7.14286 -3.94489,0 -7.14286,-3.19797 -7.14286,-7.14286 0,-3.94489 3.19797,-7.14286 7.14286,-7.14286 3.94489,0 7.14286,3.19797 7.14286,7.14286 z"
           transform="matrix(2.8,0,0,2.8,-1004.103,-966.90462)" />
        <path
           sodipodi:type="arc"
           style="fill:#000000;fill-opacity:1;stroke:none"
           id="path3927-9-0"
           sodipodi:cx="338.57144"
           sodipodi:cy="602.36218"
           sodipodi:rx="10"
           sodipodi:ry="10"
           d="m 348.57144,602.36218 c 0,5.52285 -4.47715,10 -10,10 -5.52285,0 -10,-4.47715 -10,-10 0,-5.52284 4.47715,-10 10,-10 5.52285,0 10,4.47716 10,10 z"
           transform="translate(2.8571428,-24.285714)" />
      </g>
    </g>
  </g>
</svg>
