<?xml version="1.0" encoding="UTF-8" standalone="no"?>
<!-- Created with Inkscape (http://www.inkscape.org/) -->

<svg
   xmlns:dc="http://purl.org/dc/elements/1.1/"
   xmlns:cc="http://creativecommons.org/ns#"
   xmlns:rdf="http://www.w3.org/1999/02/22-rdf-syntax-ns#"
   xmlns:svg="http://www.w3.org/2000/svg"
   xmlns="http://www.w3.org/2000/svg"
   xmlns:sodipodi="http://sodipodi.sourceforge.net/DTD/sodipodi-0.dtd"
   xmlns:inkscape="http://www.inkscape.org/namespaces/inkscape"
   width="2560"
   height="620"
   id="svg3137"
   version="1.1"
   inkscape:version="0.48.4 r9939"
   sodipodi:docname="fish.svg"
   inkscape:export-filename="/home/jtebert/Copy/Projects/Programming/hungry_pterodactyl/fish.png"
   inkscape:export-xdpi="90"
   inkscape:export-ydpi="90">
  <defs
     id="defs3139" />
  <sodipodi:namedview
     id="base"
     pagecolor="#ffffff"
     bordercolor="#666666"
     borderopacity="1.0"
     inkscape:pageopacity="0.0"
     inkscape:pageshadow="2"
     inkscape:zoom="0.49497475"
     inkscape:cx="1463.6671"
     inkscape:cy="83.175231"
     inkscape:document-units="px"
     inkscape:current-layer="layer1"
     showgrid="false"
     inkscape:window-width="1600"
     inkscape:window-height="878"
     inkscape:window-x="0"
     inkscape:window-y="0"
     inkscape:window-maximized="1"
     fit-margin-top="0"
     fit-margin-left="0"
     fit-margin-right="0"
     fit-margin-bottom="0" />
  <metadata
     id="metadata3142">
    <rdf:RDF>
      <cc:Work
         rdf:about="">
        <dc:format>image/svg+xml</dc:format>
        <dc:type
           rdf:resource="http://purl.org/dc/dcmitype/StillImage" />
        <dc:title></dc:title>
      </cc:Work>
    </rdf:RDF>
  </metadata>
  <g
     inkscape:label="Layer 1"
     inkscape:groupmode="layer"
     id="layer1"
     transform="translate(132.61716,168.46321)">
    <path
       style="fill:#ff8c3b;fill-opacity:1;stroke:none"
       d="m 379.75798,69.817771 36.40208,23.849665 c 0,0 23.06671,-16.089458 42.93143,-15.062948 38.35579,1.982076 62.30674,31.381122 62.30674,31.381122 0,0 -22.91896,24.46362 -57.28576,25.10489 -21.8381,0.4075 -47.95241,-18.82866 -47.95241,-18.82866 l -42.67831,20.0839 17.57344,-35.14687 z"
       id="path3776"
       inkscape:connector-curvature="0"
       sodipodi:nodetypes="ccscscccc"
       inkscape:export-filename="/home/jtebert/Copy/Projects/Programming/hungry_pterodactyl/fish.png"
       inkscape:export-xdpi="90"
       inkscape:export-ydpi="90" />
    <path
       style="fill:#ff8c3b;fill-opacity:1;stroke:none"
       d="m 306.77459,284.0243 21.96543,14.39112 c 0,0 13.91873,-9.70858 25.90531,-9.08912 23.14431,1.19592 37.59656,18.93565 37.59656,18.93565 0,0 -13.82954,14.76168 -34.56685,15.1486 -13.17734,0.24594 -28.93502,-11.36145 -28.93502,-11.36145 l -25.75256,12.11894 10.604,-21.20806 z"
       id="path3776-4"
       inkscape:connector-curvature="0"
       sodipodi:nodetypes="ccscscccc"
       inkscape:export-filename="/home/jtebert/Copy/Projects/Programming/hungry_pterodactyl/fish.png"
       inkscape:export-xdpi="90"
       inkscape:export-ydpi="90" />
    <path
       style="fill:#ff8c3b;fill-opacity:1;stroke:none"
       d="m 1035.6724,-77.582069 21.9654,14.391133 c 0,0 13.9187,-9.70856 25.9053,-9.089148 23.1443,1.196013 37.5965,18.935718 37.5965,18.935718 0,0 -13.8295,14.761634 -34.5668,15.148564 -13.1773,0.245891 -28.935,-11.361413 -28.935,-11.361413 l -25.7526,12.118847 10.604,-21.208 z"
       id="path3776-5"
       inkscape:connector-curvature="0"
       sodipodi:nodetypes="ccscscccc"
       inkscape:export-filename="/home/jtebert/Copy/Projects/Programming/hungry_pterodactyl/fish.png"
       inkscape:export-xdpi="90"
       inkscape:export-ydpi="90" />
    <path
       style="fill:#ff8c3b;fill-opacity:1;stroke:none"
       d="m -95.420004,-46.582212 28.044431,18.373969 c 0,0 17.770787,-12.395449 33.074706,-11.60462 29.5495989,1.527017 48.0016,24.176265 48.0016,24.176265 0,0 -17.6569411,18.8469608 -44.133393,19.3410076 -16.824233,0.31394 -36.942913,-14.5057356 -36.942913,-14.5057356 L -100.25528,4.6714613 -86.716549,-22.405959 z"
       id="path3776-0"
       inkscape:connector-curvature="0"
       sodipodi:nodetypes="ccscscccc"
       inkscape:export-filename="/home/jtebert/Copy/Projects/Programming/hungry_pterodactyl/fish.png"
       inkscape:export-xdpi="90"
       inkscape:export-ydpi="90" />
    <path
       style="fill:#ff8c3b;fill-opacity:1;stroke:none"
       d="m 1779.3932,-99.087534 21.9655,14.391148 c 0,0 13.9187,-9.708557 25.9052,-9.08915 23.1443,1.196013 37.5966,18.935717 37.5966,18.935717 0,0 -13.8295,14.761618 -34.5669,15.148566 -13.1773,0.245893 -28.9349,-11.361414 -28.9349,-11.361414 l -25.7526,12.118844 10.6039,-21.208008 z"
       id="path3776-1"
       inkscape:connector-curvature="0"
       sodipodi:nodetypes="ccscscccc"
       inkscape:export-filename="/home/jtebert/Copy/Projects/Programming/hungry_pterodactyl/fish.png"
       inkscape:export-xdpi="90"
       inkscape:export-ydpi="90" />
    <path
       style="fill:#ff8c3b;fill-opacity:1;stroke:none"
       d="m 1691.7352,318.18678 21.9654,14.39115 c 0,0 13.9186,-9.70856 25.9053,-9.08916 23.1442,1.19602 37.5966,18.93572 37.5966,18.93572 0,0 -13.8296,14.76162 -34.5669,15.14857 -13.1773,0.24589 -28.935,-11.36142 -28.935,-11.36142 l -25.7526,12.11885 10.604,-21.20801 z"
       id="path3776-9"
       inkscape:connector-curvature="0"
       sodipodi:nodetypes="ccscscccc"
       inkscape:export-filename="/home/jtebert/Copy/Projects/Programming/hungry_pterodactyl/fish.png"
       inkscape:export-xdpi="90"
       inkscape:export-ydpi="90" />
    <path
       style="fill:#ff8c3b;fill-opacity:1;stroke:none"
       d="m 1591.5886,19.841782 25.0844,16.434681 c 0,0 15.8952,-11.087167 29.5839,-10.379801 26.4308,1.365839 42.9352,21.624565 42.9352,21.624565 0,0 -15.7933,16.857751 -39.4753,17.299641 -15.0485,0.28083 -33.0438,-12.97471 -33.0438,-12.97471 l -29.4094,13.8397 12.1098,-24.219527 z"
       id="path3776-7"
       inkscape:connector-curvature="0"
       sodipodi:nodetypes="ccscscccc"
       inkscape:export-filename="/home/jtebert/Copy/Projects/Programming/hungry_pterodactyl/fish.png"
       inkscape:export-xdpi="90"
       inkscape:export-ydpi="90" />
    <path
       style="fill:#ff8c3b;fill-opacity:1;stroke:none"
       d="m 21.200424,168.27604 41.137738,26.95234 c 0,0 26.067553,-18.1826 48.516518,-17.02254 43.34562,2.23993 70.41243,35.4636 70.41243,35.4636 0,0 -25.90055,27.64617 -64.73824,28.37086 -24.679099,0.46052 -54.190708,-21.27813 -54.190708,-21.27813 l -48.230474,22.69668 19.859633,-39.71924 z"
       id="path3776-8"
       inkscape:connector-curvature="0"
       sodipodi:nodetypes="ccscscccc"
       inkscape:export-filename="/home/jtebert/Copy/Projects/Programming/hungry_pterodactyl/fish.png"
       inkscape:export-xdpi="90"
       inkscape:export-ydpi="90" />
    <path
       style="fill:#ff8c3b;fill-opacity:1;stroke:none"
       d="m 1067.9938,271.09341 50.0225,32.77338 c 0,0 31.6976,-22.10958 58.9949,-20.69899 52.7073,2.72373 85.6198,43.12287 85.6198,43.12287 0,0 -31.4944,33.61706 -78.7201,34.49827 -30.0092,0.55998 -65.8946,-25.87369 -65.8946,-25.87369 l -58.6471,27.59861 24.1489,-48.29761 z"
       id="path3776-18"
       inkscape:connector-curvature="0"
       sodipodi:nodetypes="ccscscccc"
       inkscape:export-filename="/home/jtebert/Copy/Projects/Programming/hungry_pterodactyl/fish.png"
       inkscape:export-xdpi="90"
       inkscape:export-ydpi="90" />
    <path
       style="fill:#ff8c3b;fill-opacity:1;stroke:none"
       d="m 1806.9354,71.054151 42.0417,27.544658 c 0,0 26.6403,-18.582178 49.5827,-17.396624 44.2984,2.289168 71.9599,36.242965 71.9599,36.242965 0,0 -26.4698,28.25374 -66.1608,28.99435 -25.2217,0.47065 -55.3818,-21.74574 -55.3818,-21.74574 l -49.2903,23.19548 20.2962,-40.59214 z"
       id="path3776-77"
       inkscape:connector-curvature="0"
       sodipodi:nodetypes="ccscscccc"
       inkscape:export-filename="/home/jtebert/Copy/Projects/Programming/hungry_pterodactyl/fish.png"
       inkscape:export-xdpi="90"
       inkscape:export-ydpi="90" />
    <path
       style="fill:#ff8c3b;fill-opacity:1;stroke:none"
       d="m 844.49991,75.645275 21.9654,14.391147 c 0,0 13.9187,-9.708557 25.9052,-9.089145 23.1443,1.196013 37.5966,18.935716 37.5966,18.935716 0,0 -13.8295,14.761617 -34.5668,15.148567 -13.1773,0.24589 -28.935,-11.36142 -28.935,-11.36142 l -25.7526,12.11885 10.604,-21.208008 z"
       id="path3776-82"
       inkscape:connector-curvature="0"
       sodipodi:nodetypes="ccscscccc"
       inkscape:export-filename="/home/jtebert/Copy/Projects/Programming/hungry_pterodactyl/fish.png"
       inkscape:export-xdpi="90"
       inkscape:export-ydpi="90" />
    <path
       style="fill:#ff8c3b;fill-opacity:1;stroke:none"
       d="m 620.40494,-29.678239 31.78537,20.8249267 c 0,0 20.14129,-14.0489157 37.48666,-13.1525967 33.49134,1.730707 54.40468,27.4012167 54.40468,27.4012167 0,0 -20.01221,21.3610173 -50.02047,21.9209583 -19.0685,0.355823 -41.87087,-16.440708 -41.87087,-16.440708 l -37.26563,17.536765 15.3447,-30.6893786 z"
       id="path3776-76"
       inkscape:connector-curvature="0"
       sodipodi:nodetypes="ccscscccc"
       inkscape:export-filename="/home/jtebert/Copy/Projects/Programming/hungry_pterodactyl/fish.png"
       inkscape:export-xdpi="90"
       inkscape:export-ydpi="90" />
    <path
       style="fill:#ff8c3b;fill-opacity:1;stroke:none"
       d="m 1363.7733,-66.880456 15.5326,10.176573 c 0,0 9.8426,-6.86533 18.3188,-6.427317 16.3663,0.845751 26.5861,13.39024 26.5861,13.39024 0,0 -9.7794,10.438571 -24.4437,10.712186 -9.3182,0.17388 -20.4612,-8.034132 -20.4612,-8.034132 l -18.2107,8.569745 7.4985,-14.997067 z"
       id="path3776-5-0"
       inkscape:connector-curvature="0"
       sodipodi:nodetypes="ccscscccc"
       inkscape:export-filename="/home/jtebert/Copy/Projects/Programming/hungry_pterodactyl/fish.png"
       inkscape:export-xdpi="90"
       inkscape:export-ydpi="90" />
    <path
       style="fill:#ff8c3b;fill-opacity:1;stroke:none"
       d="m 134.56386,-130.21246 13.69903,8.97522 c 0,0 8.68059,-6.05487 16.15618,-5.66856 14.43425,0.74591 23.44758,11.8095 23.44758,11.8095 0,0 -8.62497,9.20629 -21.55806,9.4476 -8.21823,0.15336 -18.0457,-7.08569 -18.0457,-7.08569 l -16.06093,7.55808 6.61333,-13.22665 z"
       id="path3776-5-8"
       inkscape:connector-curvature="0"
       sodipodi:nodetypes="ccscscccc"
       inkscape:export-filename="/home/jtebert/Copy/Projects/Programming/hungry_pterodactyl/fish.png"
       inkscape:export-xdpi="90"
       inkscape:export-ydpi="90" />
    <path
       style="fill:#ff8c3b;fill-opacity:1;stroke:none"
       d="m 2131.6132,-2.9578448 13.2858,8.70443 c 0,0 8.4186,-5.87218 15.6687,-5.49754 13.9987,0.72341 22.7401,11.4531998 22.7401,11.4531998 0,0 -8.3647,8.928523 -20.9076,9.16256 -7.9703,0.14872 -17.5012,-6.87192 -17.5012,-6.87192 l -15.5764,7.330051 6.4138,-12.8275908 z"
       id="path3776-5-5"
       inkscape:connector-curvature="0"
       sodipodi:nodetypes="ccscscccc"
       inkscape:export-filename="/home/jtebert/Copy/Projects/Programming/hungry_pterodactyl/fish.png"
       inkscape:export-xdpi="90"
       inkscape:export-ydpi="90" />
    <path
       style="fill:#ff8c3b;fill-opacity:1;stroke:none"
       d="m 1254.8832,101.37764 28.5786,18.72388 c 0,0 18.1091,-12.63151 33.7045,-11.82561 30.1124,1.55609 48.9158,24.63668 48.9158,24.63668 0,0 -17.9932,19.20589 -44.9739,19.70933 -17.1445,0.31992 -37.6464,-14.78198 -37.6464,-14.78198 l -33.5059,15.76745 13.7966,-27.59308 z"
       id="path3776-82-2"
       inkscape:connector-curvature="0"
       sodipodi:nodetypes="ccscscccc"
       inkscape:export-filename="/home/jtebert/Copy/Projects/Programming/hungry_pterodactyl/fish.png"
       inkscape:export-xdpi="90"
       inkscape:export-ydpi="90" />
    <path
       style="fill:#ff8c3b;fill-opacity:1;stroke:none"
       d="m 228.89481,-16.175983 21.96542,14.391122 c 0,0 13.91874,-9.708582 25.90531,-9.08912 23.14431,1.195921 37.59656,18.935649 37.59656,18.935649 0,0 -13.82954,14.761684 -34.56685,15.148606 C 266.61792,23.456206 250.86023,11.84882 250.86023,11.84882 l -25.75256,12.118937 10.604,-21.208058 z"
       id="path3776-4-5"
       inkscape:connector-curvature="0"
       sodipodi:nodetypes="ccscscccc"
       inkscape:export-filename="/home/jtebert/Copy/Projects/Programming/hungry_pterodactyl/fish.png"
       inkscape:export-xdpi="90"
       inkscape:export-ydpi="90" />
    <path
       style="fill:#ff8c3b;fill-opacity:1;stroke:none"
       d="m 2251.1706,-114.84731 25.0844,16.434676 c 0,0 15.8952,-11.087166 29.5839,-10.379796 26.4308,1.36584 42.9352,21.624556 42.9352,21.624556 0,0 -15.7933,16.85775 -39.4753,17.29965 -15.0485,0.28082 -33.0438,-12.97471 -33.0438,-12.97471 l -29.4094,13.83969 12.1098,-24.21952 z"
       id="path3776-7-7"
       inkscape:connector-curvature="0"
       sodipodi:nodetypes="ccscscccc"
       inkscape:export-filename="/home/jtebert/Copy/Projects/Programming/hungry_pterodactyl/fish.png"
       inkscape:export-xdpi="90"
       inkscape:export-ydpi="90" />
    <path
       style="fill:#ff8c3b;fill-opacity:1;stroke:none"
       d="m 677.0158,367.94327 31.78537,20.82493 c 0,0 20.14129,-14.04892 37.48666,-13.1526 33.49134,1.73071 54.40468,27.40122 54.40468,27.40122 0,0 -20.01221,21.36101 -50.02047,21.92095 -19.0685,0.35583 -41.87087,-16.4407 -41.87087,-16.4407 l -37.26563,17.53676 15.3447,-30.68938 z"
       id="path3776-76-4"
       inkscape:connector-curvature="0"
       sodipodi:nodetypes="ccscscccc"
       inkscape:export-filename="/home/jtebert/Copy/Projects/Programming/hungry_pterodactyl/fish.png"
       inkscape:export-xdpi="90"
       inkscape:export-ydpi="90" />
    <path
       style="fill:#ff8c3b;fill-opacity:1;stroke:none"
       d="m 1989.4967,358.20651 13.699,8.97522 c 0,0 8.6806,-6.05487 16.1562,-5.66856 14.4343,0.74591 23.4476,11.8095 23.4476,11.8095 0,0 -8.625,9.20629 -21.5581,9.4476 -8.2182,0.15336 -18.0457,-7.08569 -18.0457,-7.08569 l -16.0609,7.55808 6.6133,-13.22665 z"
       id="path3776-5-8-7"
       inkscape:connector-curvature="0"
       sodipodi:nodetypes="ccscscccc"
       inkscape:export-filename="/home/jtebert/Copy/Projects/Programming/hungry_pterodactyl/fish.png"
       inkscape:export-xdpi="90"
       inkscape:export-ydpi="90" />
    <path
       style="fill:#ff8c3b;fill-opacity:1;stroke:none"
       d="m 2174.399,125.56899 25.0844,16.43468 c 0,0 15.8952,-11.08717 29.5839,-10.3798 26.4308,1.36584 42.9352,21.62456 42.9352,21.62456 0,0 -15.7933,16.85775 -39.4753,17.29965 -15.0485,0.28082 -33.0438,-12.97471 -33.0438,-12.97471 l -29.4094,13.83969 12.1098,-24.21952 z"
       id="path3776-7-0"
       inkscape:connector-curvature="0"
       sodipodi:nodetypes="ccscscccc"
       inkscape:export-filename="/home/jtebert/Copy/Projects/Programming/hungry_pterodactyl/fish.png"
       inkscape:export-xdpi="90"
       inkscape:export-ydpi="90" />
  </g>
</svg>
