<?xml version="1.0" encoding="UTF-8" standalone="no"?>
<!-- Created with Inkscape (http://www.inkscape.org/) -->

<svg
   xmlns:dc="http://purl.org/dc/elements/1.1/"
   xmlns:cc="http://creativecommons.org/ns#"
   xmlns:rdf="http://www.w3.org/1999/02/22-rdf-syntax-ns#"
   xmlns:svg="http://www.w3.org/2000/svg"
   xmlns="http://www.w3.org/2000/svg"
   xmlns:sodipodi="http://sodipodi.sourceforge.net/DTD/sodipodi-0.dtd"
   xmlns:inkscape="http://www.inkscape.org/namespaces/inkscape"
   width="2560"
   height="620"
   id="svg3137"
   version="1.1"
   inkscape:version="0.48.4 r9939"
   sodipodi:docname="fish.svg"
   inkscape:export-filename="/home/jtebert/Copy/Projects/Programming/chefwhale/chefwhale/static/chefwhale/images/fish.png"
   inkscape:export-xdpi="90"
   inkscape:export-ydpi="90">
  <defs
     id="defs3139" />
  <sodipodi:namedview
     id="base"
     pagecolor="#ffffff"
     bordercolor="#666666"
     borderopacity="1.0"
     inkscape:pageopacity="0.0"
     inkscape:pageshadow="2"
     inkscape:zoom="0.35"
     inkscape:cx="1123.6569"
     inkscape:cy="511.89037"
     inkscape:document-units="px"
     inkscape:current-layer="layer1"
     showgrid="false"
     inkscape:window-width="1600"
     inkscape:window-height="878"
     inkscape:window-x="0"
     inkscape:window-y="0"
     inkscape:window-maximized="1"
     fit-margin-top="0"
     fit-margin-left="0"
     fit-margin-right="0"
     fit-margin-bottom="0" />
  <metadata
     id="metadata3142">
    <rdf:RDF>
      <cc:Work
         rdf:about="">
        <dc:format>image/svg+xml</dc:format>
        <dc:type
           rdf:resource="http://purl.org/dc/dcmitype/StillImage" />
        <dc:title></dc:title>
      </cc:Work>
    </rdf:RDF>
  </metadata>
  <g
     inkscape:label="Layer 1"
     inkscape:groupmode="layer"
     id="layer1"
     transform="translate(132.61716,168.46321)">
    <path
       style="fill:#ff8c3b;fill-opacity:1;stroke:none"
       d="M 648.75178,-1.0762407 672.25236,14.32071 c 0,0 14.89149,-10.387089 27.71582,-9.7243911 24.76187,1.2795956 40.22421,20.2591351 40.22421,20.2591351 0,0 -14.79611,15.79331 -36.98275,16.207303 -14.09831,0.263075 -30.95728,-12.155472 -30.95728,-12.155472 l -27.55242,12.965834 11.34513,-22.69024 z"
       id="path3776"
       inkscape:connector-curvature="0"
       sodipodi:nodetypes="ccscscccc"
       inkscape:export-filename="/home/jtebert/Copy/Projects/Programming/hungry_pterodactyl/fish.png"
       inkscape:export-xdpi="90"
       inkscape:export-ydpi="90" />
    <path
       style="fill:#ff8c3b;fill-opacity:1;stroke:none"
       d="m 601.6349,137.21196 14.18052,9.29067 c 0,0 8.9857,-6.2677 16.72404,-5.86778 14.94159,0.77206 24.27172,12.22454 24.27172,12.22454 0,0 -8.92812,9.5299 -22.31579,9.77969 -8.50707,0.15877 -18.67997,-7.33477 -18.67997,-7.33477 l -16.62543,7.82379 6.84577,-13.69157 z"
       id="path3776-4"
       inkscape:connector-curvature="0"
       sodipodi:nodetypes="ccscscccc"
       inkscape:export-filename="/home/jtebert/Copy/Projects/Programming/hungry_pterodactyl/fish.png"
       inkscape:export-xdpi="90"
       inkscape:export-ydpi="90" />
    <path
       style="fill:#ff8c3b;fill-opacity:1;stroke:none"
       d="m 1072.1993,-96.235147 14.1805,9.290678 c 0,0 8.9857,-6.267686 16.724,-5.867804 14.9416,0.772126 24.2717,12.224587 24.2717,12.224587 0,0 -8.9281,9.529868 -22.3157,9.779663 -8.5071,0.158744 -18.68,-7.334741 -18.68,-7.334741 l -16.6254,7.823728 6.8457,-13.691535 z"
       id="path3776-5"
       inkscape:connector-curvature="0"
       sodipodi:nodetypes="ccscscccc"
       inkscape:export-filename="/home/jtebert/Copy/Projects/Programming/hungry_pterodactyl/fish.png"
       inkscape:export-xdpi="90"
       inkscape:export-ydpi="90" />
    <path
       style="fill:#ff8c3b;fill-opacity:1;stroke:none"
       d="m 341.9847,-76.222151 18.10503,11.861932 c 0,0 11.47252,-8.002298 21.35248,-7.491752 19.07673,0.985817 30.98904,15.607799 30.98904,15.607799 0,0 -11.39903,12.167287 -28.49179,12.486235 -10.86145,0.202675 -23.84973,-9.364664 -23.84973,-9.364664 l -21.2266,9.988977 8.74038,-17.480736 z"
       id="path3776-0"
       inkscape:connector-curvature="0"
       sodipodi:nodetypes="ccscscccc"
       inkscape:export-filename="/home/jtebert/Copy/Projects/Programming/hungry_pterodactyl/fish.png"
       inkscape:export-xdpi="90"
       inkscape:export-ydpi="90" />
    <path
       style="fill:#ff8c3b;fill-opacity:1;stroke:none"
       d="m 1552.3332,-110.11872 14.1806,9.29069 c 0,0 8.9856,-6.26769 16.7239,-5.86781 14.9416,0.77213 24.2718,12.224588 24.2718,12.224588 0,0 -8.9281,9.529857 -22.3158,9.779665 -8.5071,0.158744 -18.6799,-7.334742 -18.6799,-7.334742 l -16.6255,7.823726 6.8457,-13.69154 z"
       id="path3776-1"
       inkscape:connector-curvature="0"
       sodipodi:nodetypes="ccscscccc"
       inkscape:export-filename="/home/jtebert/Copy/Projects/Programming/hungry_pterodactyl/fish.png"
       inkscape:export-xdpi="90"
       inkscape:export-ydpi="90" />
    <path
       style="fill:#ff8c3b;fill-opacity:1;stroke:none"
       d="m 1495.7426,159.2667 14.1805,9.29069 c 0,0 8.9857,-6.26769 16.7241,-5.86782 14.9415,0.77213 24.2717,12.22459 24.2717,12.22459 0,0 -8.9281,9.52986 -22.3158,9.77967 -8.5071,0.15874 -18.68,-7.33475 -18.68,-7.33475 l -16.6254,7.82373 6.8458,-13.69154 z"
       id="path3776-9"
       inkscape:connector-curvature="0"
       sodipodi:nodetypes="ccscscccc"
       inkscape:export-filename="/home/jtebert/Copy/Projects/Programming/hungry_pterodactyl/fish.png"
       inkscape:export-xdpi="90"
       inkscape:export-ydpi="90" />
    <path
       style="fill:#ff8c3b;fill-opacity:1;stroke:none"
       d="m 2356.3894,134.34541 16.1941,10.60996 c 0,0 10.2617,-7.15769 19.0989,-6.70103 17.0633,0.88177 27.7183,13.96046 27.7183,13.96046 0,0 -10.1959,10.88309 -25.4846,11.16837 -9.7151,0.1813 -21.3326,-8.37626 -21.3326,-8.37626 l -18.9862,8.93468 7.8179,-15.63573 z"
       id="path3776-7"
       inkscape:connector-curvature="0"
       sodipodi:nodetypes="ccscscccc"
       inkscape:export-filename="/home/jtebert/Copy/Projects/Programming/hungry_pterodactyl/fish.png"
       inkscape:export-xdpi="90"
       inkscape:export-ydpi="90" />
    <path
       style="fill:#ff8c3b;fill-opacity:1;stroke:none"
       d="m 156.65358,131.17717 26.55784,17.39998 c 0,0 16.82879,-11.73838 31.32147,-10.98947 27.98322,1.44606 45.4571,22.89472 45.4571,22.89472 0,0 -16.72097,17.84791 -41.79394,18.31575 -15.93242,0.29731 -34.98463,-13.7368 -34.98463,-13.7368 l -31.13679,14.6526 12.82105,-25.64209 z"
       id="path3776-8"
       inkscape:connector-curvature="0"
       sodipodi:nodetypes="ccscscccc"
       inkscape:export-filename="/home/jtebert/Copy/Projects/Programming/hungry_pterodactyl/fish.png"
       inkscape:export-xdpi="90"
       inkscape:export-ydpi="90" />
    <path
       style="fill:#ff8c3b;fill-opacity:1;stroke:none"
       d="m 2210.2084,337.43542 32.2937,21.15796 c 0,0 20.4634,-14.27358 38.0861,-13.36293 34.027,1.7584 55.2747,27.83941 55.2747,27.83941 0,0 -20.3322,21.70262 -50.8204,22.27152 -19.3734,0.36151 -42.5404,-16.70363 -42.5404,-16.70363 l -37.8616,17.81721 15.5901,-31.18014 z"
       id="path3776-18"
       inkscape:connector-curvature="0"
       sodipodi:nodetypes="ccscscccc"
       inkscape:export-filename="/home/jtebert/Copy/Projects/Programming/hungry_pterodactyl/fish.png"
       inkscape:export-xdpi="90"
       inkscape:export-ydpi="90" />
    <path
       style="fill:#ff8c3b;fill-opacity:1;stroke:none"
       d="m 1773.2118,361.35655 21.6142,14.16108 c 0,0 13.6962,-9.55335 25.4911,-8.94384 22.7744,1.1769 36.9956,18.63299 36.9956,18.63299 0,0 -13.6085,14.52563 -34.0142,14.90638 -12.9668,0.24197 -28.4725,-11.17977 -28.4725,-11.17977 l -25.3408,11.9251 10.4346,-20.86896 z"
       id="path3776-77"
       inkscape:connector-curvature="0"
       sodipodi:nodetypes="ccscscccc"
       inkscape:export-filename="/home/jtebert/Copy/Projects/Programming/hungry_pterodactyl/fish.png"
       inkscape:export-xdpi="90"
       inkscape:export-ydpi="90" />
    <path
       style="fill:#ff8c3b;fill-opacity:1;stroke:none"
       d="m 498.25347,340.07685 14.1805,9.29068 c 0,0 8.98569,-6.26768 16.72397,-5.8678 14.94158,0.77213 24.27173,12.22459 24.27173,12.22459 0,0 -8.92808,9.52986 -22.31574,9.77966 -8.50705,0.15875 -18.67996,-7.33474 -18.67996,-7.33474 l -16.62545,7.82373 6.84577,-13.69154 z"
       id="path3776-82"
       inkscape:connector-curvature="0"
       sodipodi:nodetypes="ccscscccc"
       inkscape:export-filename="/home/jtebert/Copy/Projects/Programming/hungry_pterodactyl/fish.png"
       inkscape:export-xdpi="90"
       inkscape:export-ydpi="90" />
    <path
       style="fill:#ff8c3b;fill-opacity:1;stroke:none"
       d="m 2228.4246,-73.390444 20.5201,13.444229 c 0,0 13.0029,-9.069748 24.2007,-8.4911 21.6215,1.117316 35.1228,17.689774 35.1228,17.689774 0,0 -12.9195,13.790321 -32.2924,14.151809 -12.3103,0.229714 -27.0311,-10.61385 -27.0311,-10.61385 l -24.0581,11.321447 9.9063,-19.812557 z"
       id="path3776-76"
       inkscape:connector-curvature="0"
       sodipodi:nodetypes="ccscscccc"
       inkscape:export-filename="/home/jtebert/Copy/Projects/Programming/hungry_pterodactyl/fish.png"
       inkscape:export-xdpi="90"
       inkscape:export-ydpi="90" />
    <path
       style="fill:#ff8c3b;fill-opacity:1;stroke:none"
       d="m 912.27966,50.074689 10.0276,6.569827 c 0,0 6.3543,-4.432143 11.8263,-4.149369 10.5659,0.546002 17.1636,8.644518 17.1636,8.644518 0,0 -6.3134,6.738969 -15.7805,6.91561 -6.0156,0.112254 -13.2094,-5.186703 -13.2094,-5.186703 l -11.7565,5.532486 4.8409,-9.681859 z"
       id="path3776-5-0"
       inkscape:connector-curvature="0"
       sodipodi:nodetypes="ccscscccc"
       inkscape:export-filename="/home/jtebert/Copy/Projects/Programming/hungry_pterodactyl/fish.png"
       inkscape:export-xdpi="90"
       inkscape:export-ydpi="90" />
    <path
       style="fill:#ff8c3b;fill-opacity:1;stroke:none"
       d="m 490.45849,-130.21246 8.84387,5.79425 c 0,0 5.60405,-3.90892 10.43017,-3.65952 9.31851,0.48154 15.13737,7.62401 15.13737,7.62401 0,0 -5.56814,5.94343 -13.91753,6.09922 -5.30556,0.099 -11.65001,-4.57441 -11.65001,-4.57441 l -10.36867,4.87938 4.26946,-8.53891 z"
       id="path3776-5-8"
       inkscape:connector-curvature="0"
       sodipodi:nodetypes="ccscscccc"
       inkscape:export-filename="/home/jtebert/Copy/Projects/Programming/hungry_pterodactyl/fish.png"
       inkscape:export-xdpi="90"
       inkscape:export-ydpi="90" />
    <path
       style="fill:#ff8c3b;fill-opacity:1;stroke:none"
       d="m 1779.7206,-48.058978 8.5771,5.619436 c 0,0 5.4349,-3.790983 10.1155,-3.549121 9.0373,0.467021 14.6806,7.393997 14.6806,7.393997 0,0 -5.4001,5.764107 -13.4976,5.915198 -5.1455,0.09601 -11.2985,-4.436399 -11.2985,-4.436399 l -10.0559,4.73216 4.1407,-8.281281 z"
       id="path3776-5-5"
       inkscape:connector-curvature="0"
       sodipodi:nodetypes="ccscscccc"
       inkscape:export-filename="/home/jtebert/Copy/Projects/Programming/hungry_pterodactyl/fish.png"
       inkscape:export-xdpi="90"
       inkscape:export-ydpi="90" />
    <path
       style="fill:#ff8c3b;fill-opacity:1;stroke:none"
       d="m 1213.7182,19.29829 18.4499,12.087829 c 0,0 11.6909,-8.154695 21.759,-7.634419 19.4401,1.004586 31.5793,15.905034 31.5793,15.905034 0,0 -11.6161,12.399006 -29.0344,12.724019 -11.0682,0.206535 -24.3039,-9.543003 -24.3039,-9.543003 l -21.6309,10.179206 8.9069,-17.813638 z"
       id="path3776-82-2"
       inkscape:connector-curvature="0"
       sodipodi:nodetypes="ccscscccc"
       inkscape:export-filename="/home/jtebert/Copy/Projects/Programming/hungry_pterodactyl/fish.png"
       inkscape:export-xdpi="90"
       inkscape:export-ydpi="90" />
    <path
       style="fill:#ff8c3b;fill-opacity:1;stroke:none"
       d="m 165.47873,349.48893 14.18051,9.29067 c 0,0 8.98571,-6.2677 16.72404,-5.86778 14.94159,0.77206 24.27172,12.22454 24.27172,12.22454 0,0 -8.92812,9.5299 -22.31579,9.77969 -8.50706,0.15877 -18.67997,-7.33477 -18.67997,-7.33477 l -16.62543,7.82379 6.84577,-13.69158 z"
       id="path3776-4-5"
       inkscape:connector-curvature="0"
       sodipodi:nodetypes="ccscscccc"
       inkscape:export-filename="/home/jtebert/Copy/Projects/Programming/hungry_pterodactyl/fish.png"
       inkscape:export-xdpi="90"
       inkscape:export-ydpi="90" />
    <path
       style="fill:#ff8c3b;fill-opacity:1;stroke:none"
       d="m 1978.1232,-112.21175 16.1941,10.60995 c 0,0 10.2617,-7.15769 19.0989,-6.70102 17.0633,0.88176 27.7182,13.96046 27.7182,13.96046 0,0 -10.1959,10.883081 -25.4846,11.168364 -9.715,0.181293 -21.3325,-8.376259 -21.3325,-8.376259 l -18.9862,8.934676 7.8178,-15.635721 z"
       id="path3776-7-7"
       inkscape:connector-curvature="0"
       sodipodi:nodetypes="ccscscccc"
       inkscape:export-filename="/home/jtebert/Copy/Projects/Programming/hungry_pterodactyl/fish.png"
       inkscape:export-xdpi="90"
       inkscape:export-ydpi="90" />
    <path
       style="fill:#ff8c3b;fill-opacity:1;stroke:none"
       d="m 840.65652,191.38867 20.52011,13.44423 c 0,0 13.00289,-9.06975 24.20077,-8.4911 21.62146,1.11731 35.12277,17.68977 35.12277,17.68977 0,0 -12.91955,13.79032 -32.29239,14.15181 -12.31031,0.22971 -27.03115,-10.61385 -27.03115,-10.61385 l -24.05807,11.32144 9.90628,-19.81255 z"
       id="path3776-76-4"
       inkscape:connector-curvature="0"
       sodipodi:nodetypes="ccscscccc"
       inkscape:export-filename="/home/jtebert/Copy/Projects/Programming/hungry_pterodactyl/fish.png"
       inkscape:export-xdpi="90"
       inkscape:export-ydpi="90" />
    <path
       style="fill:#ff8c3b;fill-opacity:1;stroke:none"
       d="m 2075.8712,166.92002 8.8438,5.79426 c 0,0 5.6041,-3.90893 10.4302,-3.65953 9.3185,0.48155 15.1374,7.62402 15.1374,7.62402 0,0 -5.5682,5.94343 -13.9176,6.09921 -5.3055,0.099 -11.65,-4.5744 -11.65,-4.5744 l -10.3687,4.87937 4.2695,-8.53891 z"
       id="path3776-5-8-7"
       inkscape:connector-curvature="0"
       sodipodi:nodetypes="ccscscccc"
       inkscape:export-filename="/home/jtebert/Copy/Projects/Programming/hungry_pterodactyl/fish.png"
       inkscape:export-xdpi="90"
       inkscape:export-ydpi="90" />
    <path
       style="fill:#ff8c3b;fill-opacity:1;stroke:none"
       d="m 1437.6266,366.24586 16.1941,10.60996 c 0,0 10.2617,-7.1577 19.0989,-6.70103 17.0633,0.88176 27.7182,13.96046 27.7182,13.96046 0,0 -10.1959,10.88309 -25.4846,11.16837 -9.715,0.18129 -21.3325,-8.37626 -21.3325,-8.37626 l -18.9862,8.93468 7.8179,-15.63573 z"
       id="path3776-7-0"
       inkscape:connector-curvature="0"
       sodipodi:nodetypes="ccscscccc"
       inkscape:export-filename="/home/jtebert/Copy/Projects/Programming/hungry_pterodactyl/fish.png"
       inkscape:export-xdpi="90"
       inkscape:export-ydpi="90" />
    <path
       style="fill:#ff8c3b;fill-opacity:1;stroke:none"
       d="m 1883.4297,-12.924525 14.1805,9.290689 c 0,0 8.9857,-6.2676863 16.7239,-5.8678054 14.9416,0.7721308 24.2718,12.2245887 24.2718,12.2245887 0,0 -8.9281,9.5298587 -22.3158,9.7796607 -8.507,0.158749 -18.6799,-7.3347391 -18.6799,-7.3347391 l -16.6255,7.8237231 6.8458,-13.69153498 z"
       id="path3776-82-5"
       inkscape:connector-curvature="0"
       sodipodi:nodetypes="ccscscccc"
       inkscape:export-filename="/home/jtebert/Copy/Projects/Programming/hungry_pterodactyl/fish.png"
       inkscape:export-xdpi="90"
       inkscape:export-ydpi="90" />
    <path
       style="fill:#ff8c3b;fill-opacity:1;stroke:none"
       d="m -85.436749,364.88416 24.476991,16.03666 c 0,0 15.510225,-10.81865 28.86734,-10.12842 25.7907445,1.33278 41.8954263,21.10086 41.8954263,21.10086 0,0 -15.4107791,16.44949 -38.5192923,16.88069 -14.684057,0.274 -32.243474,-12.66051 -32.243474,-12.66051 l -28.697178,13.50455 11.816507,-23.63297 z"
       id="path3776-18-5"
       inkscape:connector-curvature="0"
       sodipodi:nodetypes="ccscscccc"
       inkscape:export-filename="/home/jtebert/Copy/Projects/Programming/hungry_pterodactyl/fish.png"
       inkscape:export-xdpi="90"
       inkscape:export-ydpi="90" />
    <path
       style="fill:#ff8c3b;fill-opacity:1;stroke:none"
       d="m -97.554214,-154.27841 14.1805,9.29069 c 0,0 8.98569,-6.26769 16.72397,-5.8678 14.94158,0.77212 24.27173,12.22458 24.27173,12.22458 0,0 -8.92808,9.52986 -22.31574,9.77967 -8.50705,0.15874 -18.67996,-7.33475 -18.67996,-7.33475 l -16.62545,7.82373 6.84577,-13.69154 z"
       id="path3776-82-54"
       inkscape:connector-curvature="0"
       sodipodi:nodetypes="ccscscccc"
       inkscape:export-filename="/home/jtebert/Copy/Projects/Programming/hungry_pterodactyl/fish.png"
       inkscape:export-xdpi="90"
       inkscape:export-ydpi="90" />
    <path
       style="fill:#ff8c3b;fill-opacity:1;stroke:none"
       d="m 49.588642,35.72159 14.1805,9.29069 c 0,0 8.98569,-6.26769 16.72397,-5.8678 14.94158,0.77212 24.271728,12.22458 24.271728,12.22458 0,0 -8.928078,9.52986 -22.315738,9.77967 -8.50705,0.15874 -18.67996,-7.33475 -18.67996,-7.33475 l -16.62545,7.82373 6.84577,-13.69154 z"
       id="path3776-82-9"
       inkscape:connector-curvature="0"
       sodipodi:nodetypes="ccscscccc"
       inkscape:export-filename="/home/jtebert/Copy/Projects/Programming/hungry_pterodactyl/fish.png"
       inkscape:export-xdpi="90"
       inkscape:export-ydpi="90" />
    <path
       style="fill:#ff8c3b;fill-opacity:1;stroke:none"
       d="m 313.79668,256.31247 8.84387,5.79425 c 0,0 5.60405,-3.90892 10.43017,-3.65952 9.31851,0.48154 15.13737,7.62401 15.13737,7.62401 0,0 -5.56814,5.94343 -13.91753,6.09922 -5.30556,0.099 -11.65001,-4.57441 -11.65001,-4.57441 l -10.36867,4.87938 4.26946,-8.53891 z"
       id="path3776-5-8-6"
       inkscape:connector-curvature="0"
       sodipodi:nodetypes="ccscscccc"
       inkscape:export-filename="/home/jtebert/Copy/Projects/Programming/hungry_pterodactyl/fish.png"
       inkscape:export-xdpi="90"
       inkscape:export-ydpi="90" />
    <path
       style="fill:#ff8c3b;fill-opacity:1;stroke:none"
       d="m 1073.0434,357.52079 10.0276,6.56983 c 0,0 6.3543,-4.43215 11.8263,-4.14937 10.5659,0.546 17.1636,8.64452 17.1636,8.64452 0,0 -6.3134,6.73897 -15.7805,6.91561 -6.0156,0.11225 -13.2094,-5.18671 -13.2094,-5.18671 l -11.7565,5.53249 4.8409,-9.68186 z"
       id="path3776-5-0-0"
       inkscape:connector-curvature="0"
       sodipodi:nodetypes="ccscscccc"
       inkscape:export-filename="/home/jtebert/Copy/Projects/Programming/hungry_pterodactyl/fish.png"
       inkscape:export-xdpi="90"
       inkscape:export-ydpi="90" />
    <path
       style="fill:#ff8c3b;fill-opacity:1;stroke:none"
       d="m 1916.1672,258.95185 16.1941,10.60996 c 0,0 10.2617,-7.15769 19.0989,-6.70103 17.0633,0.88176 27.7183,13.96046 27.7183,13.96046 0,0 -10.1959,10.88309 -25.4846,11.16837 -9.7151,0.1813 -21.3326,-8.37626 -21.3326,-8.37626 l -18.9862,8.93468 7.8179,-15.63573 z"
       id="path3776-7-2"
       inkscape:connector-curvature="0"
       sodipodi:nodetypes="ccscscccc"
       inkscape:export-filename="/home/jtebert/Copy/Projects/Programming/hungry_pterodactyl/fish.png"
       inkscape:export-xdpi="90"
       inkscape:export-ydpi="90" />
  </g>
</svg>
