<?xml version="1.0" encoding="UTF-8" standalone="no"?>
<!-- Created with Inkscape (http://www.inkscape.org/) -->

<svg
   xmlns:dc="http://purl.org/dc/elements/1.1/"
   xmlns:cc="http://creativecommons.org/ns#"
   xmlns:rdf="http://www.w3.org/1999/02/22-rdf-syntax-ns#"
   xmlns:svg="http://www.w3.org/2000/svg"
   xmlns="http://www.w3.org/2000/svg"
   xmlns:sodipodi="http://sodipodi.sourceforge.net/DTD/sodipodi-0.dtd"
   xmlns:inkscape="http://www.inkscape.org/namespaces/inkscape"
   width="218.42554"
   height="158.57143"
   id="svg4272"
   version="1.1"
   inkscape:version="0.48.4 r9939"
   sodipodi:docname="seaweed.svg"
   inkscape:export-filename="/home/jtebert/Copy/Projects/Programming/hungry_pterodactyl/seaweed2.png"
   inkscape:export-xdpi="90"
   inkscape:export-ydpi="90">
  <defs
     id="defs4274" />
  <sodipodi:namedview
     id="base"
     pagecolor="#ffffff"
     bordercolor="#666666"
     borderopacity="1.0"
     inkscape:pageopacity="0.0"
     inkscape:pageshadow="2"
     inkscape:zoom="1.4"
     inkscape:cx="42.962933"
     inkscape:cy="131.11859"
     inkscape:document-units="px"
     inkscape:current-layer="layer1"
     showgrid="false"
     inkscape:window-width="644"
     inkscape:window-height="394"
     inkscape:window-x="734"
     inkscape:window-y="511"
     inkscape:window-maximized="0"
     fit-margin-top="0"
     fit-margin-left="0"
     fit-margin-right="0"
     fit-margin-bottom="0" />
  <metadata
     id="metadata4277">
    <rdf:RDF>
      <cc:Work
         rdf:about="">
        <dc:format>image/svg+xml</dc:format>
        <dc:type
           rdf:resource="http://purl.org/dc/dcmitype/StillImage" />
        <dc:title></dc:title>
      </cc:Work>
    </rdf:RDF>
  </metadata>
  <g
     inkscape:label="Layer 1"
     inkscape:groupmode="layer"
     id="layer1"
     transform="translate(-86.224741,-893.79075)">
    <path
       style="fill:#29b058;fill-opacity:1;stroke:none"
       d="m 125.07571,1051.2394 c -0.70054,-21.1939 -7.91645,-48.6354 -14.56725,-69.39843 -5.18998,-16.20257 -15.129972,-29.47408 -22.423421,-44.79488 -3.755871,-7.88967 -2.046046,-23.98076 7.161339,-12.95406 8.773722,10.50734 8.040342,25.4129 16.422132,36.21407 6.66395,8.58747 1.03724,24.21095 11.62843,29.12916 9.82331,4.56163 10.12762,-12.8785 11.0006,-19.88789 2.48715,-19.97005 1.83832,-40.13148 2.7173,-60.22318 0.37287,-8.52329 12.98159,-24.96794 12.54871,-8.47098 -0.29621,11.28825 -8.15266,21.97572 -7.02873,33.13278 1.62872,16.16814 16.28428,-2.88273 20.76101,-9.39299 7.71377,-11.21769 16.3144,-25.34487 30.41871,-27.35154 13.45403,-1.91416 5.55023,13.02495 -3.05028,16.22427 -11.49456,4.27588 -16.18032,16.7154 -26.63343,23.99828 -15.10698,10.52533 -18.07021,30.93204 -19.85759,48.39507 -1.30401,12.74043 15.58401,5.83071 18.51684,-2.33889 2.9319,-8.16707 25.57699,-10.44869 16.93773,1.06744 -8.78481,11.71015 -27.64287,11.8164 -34.5196,26.29537 -5.93852,12.5035 -9.03416,26.1558 -9.30513,39.8734 -2.2043,1.4368 -6.96205,2.5175 -10.72737,0.483 z"
       id="path4290"
       inkscape:connector-curvature="0"
       sodipodi:nodetypes="cssssssssssssssssscc"
       inkscape:export-filename="/home/jtebert/Copy/Projects/Programming/chefwhale/chefwhale/static/chefwhale/images/seaweed1.png"
       inkscape:export-xdpi="90"
       inkscape:export-ydpi="90" />
    <path
       style="fill:#29b058;fill-opacity:1;stroke:none"
       d="m 241.26238,1049.8279 c 1.13446,-18.4783 -4.3878,-38.2914 -18.64445,-50.89676 -6.9619,-6.15555 -18.49008,-8.07948 -21.39342,-17.38622 -2.1743,-6.96973 8.53517,-4.40631 12.22781,-1.87206 9.41984,6.46482 15.64729,18.32033 26.59008,21.55944 6.71214,1.9868 3.87549,-9.13073 1.42686,-13.12929 -5.25697,-8.58454 -5.23258,-19.15996 -6.62367,-28.91281 -1.02558,-7.1903 -4.00661,-13.20619 -6.95473,-19.40623 -2.56046,-5.38475 6.3603,-11.32488 9.17728,-4.52277 4.52903,10.93623 8.0362,22.27482 10.0293,33.96822 1.19365,7.00303 5.13104,14.03099 3.69743,20.98787 -1.63395,7.929 6.19201,15.33451 11.82325,10.24071 6.34146,-5.73627 3.45398,-15.4496 4.49693,-23.13465 1.15156,-8.48529 0.73912,-17.10894 -0.68598,-25.49704 -1.30473,-7.67956 -7.08448,-14.27416 -7.31985,-22.07472 -0.19322,-6.40361 9.30351,-1.62301 11.39749,2.91264 2.27533,4.9285 3.37037,10.02491 2.66038,15.46676 -0.60911,4.66863 0.23364,12.08642 5.57367,13.28721 5.25974,1.18275 9.49398,-4.57836 9.58633,-9.80184 0.0863,-4.88242 0.68038,-10.40418 5.4122,-13.55028 5.22287,-3.4726 11.28049,0.8843 10.89335,6.56904 -0.29915,4.39272 -2.65742,8.43143 -5.20198,11.85786 -6.81537,9.1774 -20.94726,13.28282 -22.90573,25.33169 -1.68581,10.37147 -3.32749,20.88303 -8.97646,29.64953 -5.65635,8.7781 -13.7765,17.9103 -12.35923,29.2052 0.38015,3.0297 1.43908,5.9365 1.78345,8.9863 -5.23677,1.7373 -10.47353,4.9983 -15.71031,0.1622 z"
       id="path4329"
       inkscape:connector-curvature="0"
       sodipodi:nodetypes="csssssssssssssssssssssssscc"
       inkscape:export-filename="/home/jtebert/Copy/Projects/Programming/chefwhale/chefwhale/static/chefwhale/images/seaweed2.png"
       inkscape:export-xdpi="90"
       inkscape:export-ydpi="90" />
  </g>
</svg>
